<?xml version="1.0" encoding="UTF-8" standalone="no"?>
<!-- Created with Inkscape (http://www.inkscape.org/) -->

<svg
   width="210mm"
   height="297mm"
   viewBox="0 0 210 297"
   version="1.1"
   id="svg1"
   xml:space="preserve"
   inkscape:export-filename="bitmap.svg"
   inkscape:export-xdpi="96"
   inkscape:export-ydpi="96"
   sodipodi:docname="kidney-jpeg-1.svg"
   xmlns:inkscape="http://www.inkscape.org/namespaces/inkscape"
   xmlns:sodipodi="http://sodipodi.sourceforge.net/DTD/sodipodi-0.dtd"
   xmlns="http://www.w3.org/2000/svg"
   xmlns:svg="http://www.w3.org/2000/svg"><sodipodi:namedview
     id="namedview1"
     pagecolor="#ffffff"
     bordercolor="#000000"
     borderopacity="0.25"
     inkscape:showpageshadow="2"
     inkscape:pageopacity="0.0"
     inkscape:pagecheckerboard="0"
     inkscape:deskcolor="#d1d1d1"
     inkscape:document-units="mm" /><defs
     id="defs1" /><g
     inkscape:label="Layer 1"
     inkscape:groupmode="layer"
     id="layer1"><g
       transform="matrix(-0.03527778,0,0,-0.03527778,199.93991,329.12279)"
       fill="#000000"
       stroke="none"
       id="g2"><path
         d="M 3390,8593 C 3047,8557 2799,8485 2485,8330 2127,8153 1832,7932 1519,7605 1347,7425 1275,7330 1128,7080 780,6491 580,5903 498,5230 c -20,-165 -17,-701 5,-875 44,-341 111,-603 236,-927 116,-297 362,-562 703,-754 525,-298 1113,-322 1620,-68 317,159 644,476 775,751 64,134 123,308 155,453 31,143 33,478 4,610 -38,174 -113,364 -203,513 -47,79 -162,236 -215,293 -23,25 -39,47 -36,50 8,7 198,-70 313,-128 101,-50 137,-73 254,-156 196,-140 329,-434 405,-893 88,-536 85,-1332 -10,-2101 -15,-119 -24,-228 -20,-243 4,-15 24,-45 45,-67 34,-37 44,-42 92,-45 43,-3 62,1 93,19 55,32 73,68 90,183 21,139 62,563 78,790 15,239 15,851 -1,1050 -48,603 -157,1012 -347,1307 -166,258 -551,492 -1048,637 -215,63 -550,131 -647,131 -61,0 -107,-31 -138,-93 -44,-89 -10,-156 120,-232 406,-239 708,-579 823,-925 62,-188 78,-412 42,-610 -20,-115 -83,-304 -137,-414 -103,-207 -364,-458 -619,-594 -283,-151 -651,-185 -989,-91 -322,90 -645,313 -810,560 -121,179 -242,563 -295,929 -68,471 -37,1022 84,1485 122,468 317,905 587,1320 177,271 556,627 884,830 661,409 1375,476 1804,170 256,-183 355,-509 268,-885 -34,-144 -257,-560 -487,-910 -68,-102 -128,-196 -135,-209 -33,-60 15,-168 88,-198 42,-18 110,-13 145,11 67,43 397,572 565,905 90,178 111,234 141,381 152,749 -284,1320 -1069,1399 -98,10 -245,12 -321,4 z"
         id="path1" /><path
         d="m 3092,7674 c -339,-57 -534,-234 -577,-525 -5,-36 -7,-37 -67,-49 -257,-50 -440,-189 -516,-391 -27,-72 -45,-204 -36,-267 l 6,-50 -72,-12 c -174,-29 -328,-153 -415,-334 -99,-206 -100,-405 -4,-601 l 40,-80 -54,-50 c -174,-161 -290,-420 -272,-609 27,-285 172,-520 385,-624 47,-23 117,-50 155,-59 39,-10 71,-18 73,-19 2,-1 11,-42 21,-91 35,-170 99,-295 204,-396 163,-157 398,-216 608,-154 300,90 470,253 524,501 38,171 -4,393 -111,597 -45,85 -88,119 -152,119 -93,0 -162,-64 -162,-150 0,-33 10,-65 34,-112 63,-124 81,-191 81,-313 0,-95 -3,-116 -22,-151 -43,-81 -151,-151 -292,-190 -50,-14 -69,-15 -117,-6 -191,39 -279,171 -302,453 -14,167 -46,198 -223,210 -125,8 -192,35 -259,101 -79,80 -137,239 -127,350 13,142 137,313 286,393 85,45 110,74 118,133 8,61 -1,84 -63,154 -30,35 -70,90 -87,123 -30,56 -32,66 -32,165 0,103 1,106 39,175 83,151 192,194 334,133 62,-26 110,-23 159,8 46,30 73,78 73,129 0,19 -12,70 -26,112 -51,152 -41,294 26,375 57,69 197,122 358,134 104,7 158,30 189,79 26,39 29,70 18,171 -20,187 101,288 375,313 111,10 137,1 207,-71 65,-67 85,-121 84,-235 -1,-105 13,-149 57,-183 80,-63 191,-38 239,55 21,40 29,198 14,277 -28,142 -127,291 -256,383 -109,78 -160,95 -278,94 -56,-1 -139,-7 -185,-15 z"
         id="path2" /></g></g></svg>
