<?xml version="1.0" encoding="utf-8"?>
<svg viewBox="0 0 176 130" fill="none" x="0px" y="0px" xmlns="http://www.w3.org/2000/svg">
  <path fill-rule="evenodd" clip-rule="evenodd" d="M87.669 14.0003L87.0171 14.0004C69.2467 14.0004 50.4407 15.3932 36.2705 21.241C29.2904 24.1216 23.7976 27.9404 20.047 32.8738C16.3607 37.7227 14 44.1121 14 52.852C14 67.8323 16.8221 76.7635 20.3149 81.9663C23.6351 86.9119 27.9454 89.0724 32.717 89.7557C37.7449 90.4757 43.3745 89.535 48.5665 87.8446C53.7393 86.1604 57.8736 83.931 59.6829 82.7101C61.6168 81.4051 63.3001 80.1872 64.9385 79.0017C65.2765 78.7572 65.6126 78.514 65.9486 78.2717C67.8535 76.8982 69.8157 75.5087 71.8476 74.3173C76.1929 71.7694 80.8078 70.1563 87.0172 70.1563C93.3964 70.1563 98.0117 72.015 102.163 74.667C104.019 75.8529 105.813 77.2188 107.479 78.4875L107.648 78.6158C109.425 79.9682 111.199 81.3141 113.262 82.6934C114.674 83.6377 118.616 85.5259 123.951 86.8682C129.206 88.1905 135.145 88.8092 140.619 87.8305C145.946 86.8782 150.768 84.4457 154.449 79.5562C158.22 74.5475 161.316 66.2624 161.665 52.6723C161.931 42.2929 159.497 35.2469 155.795 30.2733C152.049 25.2397 146.489 21.6356 139.309 19.1145C124.738 13.9988 105.666 13.9996 87.669 14.0003ZM167.027 21.9152C172.963 29.8929 175.99 40.1892 175.66 53.0316C175.264 68.4688 171.706 79.9111 165.634 87.9766C159.472 96.1613 151.261 100.15 143.083 101.612C135.051 103.048 127.012 102.075 120.535 100.445C114.138 98.8356 108.592 96.4121 105.48 94.3317C103.019 92.6861 100.935 91.1001 99.1689 89.7561C97.3402 88.3642 95.966 87.3215 94.6249 86.4646C92.2558 84.951 90.2182 84.1563 87.0172 84.1563C83.6462 84.1563 81.4493 84.9165 78.9291 86.3942C77.5282 87.2157 76.0443 88.2521 74.1368 89.6275C73.8317 89.8475 73.5167 90.0755 73.1918 90.3106C71.5494 91.4992 69.6552 92.8701 67.514 94.315C64.5573 96.3102 59.2337 99.0948 52.9007 101.157C46.5869 103.212 38.6626 104.75 30.7324 103.614C22.5459 102.442 14.494 98.413 8.6913 89.7696C3.06126 81.3833 1.66893e-05 69.3258 0 52.852C-1.19209e-05 41.3842 3.17192 31.9382 8.902 24.401C14.5678 16.9483 22.3751 11.8302 30.9298 8.29974C47.8292 1.3256 69.0318 0.000354682 87.0172 0.000360881C87.6246 0.000360881 88.2377 7.71631e-05 88.8561 -0.000208939C105.941 -0.00811347 127.077 -0.0178924 143.947 5.90507C152.88 9.04149 161.135 13.9976 167.027 21.9152Z" fill="black"/>
</svg>